%
M48
M72
T01C0.03543
T02C0.04000
T03C0.12992
%
T01
X48000Y21000
X58000Y21000
X68000Y21000
X82000Y21000
X92000Y21000
X102000Y21000
X117000Y21000
X117000Y11000
T02
X11500Y11000
X11500Y21000
X11500Y31000
X11500Y41000
X11500Y51000
X11500Y61000
X11500Y71000
X11500Y81000
X138500Y81000
X138500Y71000
X138500Y61000
X138500Y51000
X138500Y41000
X138500Y31000
X138500Y21000
X138500Y11000
T03
X115000Y60000
X35000Y60000
M30
