G75*
%MOIN*%
%OFA0B0*%
%FSLAX25Y25*%
%IPPOS*%
%LPD*%
%AMOC8*
5,1,8,0,0,1.08239X$1,22.5*
%
%ADD10C,0.00000*%
%ADD11OC8,0.07000*%
%ADD12C,0.01200*%
%ADD13OC8,0.07087*%
%ADD14C,0.16992*%
%ADD15C,0.07600*%
D10*
X0005000Y0005000D02*
X0005000Y0090000D01*
X0145000Y0090000D01*
X0145000Y0005000D01*
X0005000Y0005000D01*
D11*
X0011500Y0011000D03*
X0011500Y0021000D03*
X0011500Y0031000D03*
X0011500Y0041000D03*
X0011500Y0051000D03*
X0011500Y0061000D03*
X0011500Y0071000D03*
X0011500Y0081000D03*
X0138500Y0081000D03*
X0138500Y0071000D03*
X0138500Y0061000D03*
X0138500Y0051000D03*
X0138500Y0041000D03*
X0138500Y0031000D03*
X0138500Y0021000D03*
X0138500Y0011000D03*
D12*
X0138100Y0010993D02*
X0016800Y0010993D01*
X0016800Y0012191D02*
X0133400Y0012191D01*
X0133400Y0011400D02*
X0138100Y0011400D01*
X0138100Y0010600D01*
X0133400Y0010600D01*
X0133400Y0008888D01*
X0135188Y0007100D01*
X0015095Y0007100D01*
X0016800Y0008805D01*
X0016800Y0013195D01*
X0013995Y0016000D01*
X0016800Y0018805D01*
X0016800Y0023195D01*
X0013995Y0026000D01*
X0016800Y0028805D01*
X0016800Y0033195D01*
X0013995Y0036000D01*
X0016800Y0038805D01*
X0016800Y0043195D01*
X0013995Y0046000D01*
X0016800Y0048805D01*
X0016800Y0053195D01*
X0013995Y0056000D01*
X0016800Y0058805D01*
X0016800Y0063195D01*
X0013995Y0066000D01*
X0016800Y0068805D01*
X0016800Y0073195D01*
X0013995Y0076000D01*
X0016800Y0078805D01*
X0016800Y0083195D01*
X0013695Y0086300D01*
X0009305Y0086300D01*
X0007100Y0084095D01*
X0007100Y0087900D01*
X0142900Y0087900D01*
X0142900Y0084095D01*
X0140695Y0086300D01*
X0136305Y0086300D01*
X0133200Y0083195D01*
X0133200Y0078805D01*
X0136005Y0076000D01*
X0133200Y0073195D01*
X0133200Y0068805D01*
X0136005Y0066000D01*
X0133200Y0063195D01*
X0133200Y0058805D01*
X0136005Y0056000D01*
X0133200Y0053195D01*
X0133200Y0048805D01*
X0135405Y0046600D01*
X0065116Y0046600D01*
X0059491Y0045316D01*
X0054294Y0042813D01*
X0049784Y0039216D01*
X0046187Y0034706D01*
X0043684Y0029509D01*
X0043684Y0029509D01*
X0042400Y0023884D01*
X0042400Y0019886D01*
X0042657Y0019266D01*
X0042657Y0018787D01*
X0042996Y0018448D01*
X0043253Y0017828D01*
X0044828Y0016253D01*
X0045448Y0015996D01*
X0045787Y0015657D01*
X0046266Y0015657D01*
X0046886Y0015400D01*
X0049114Y0015400D01*
X0049734Y0015657D01*
X0050213Y0015657D01*
X0050552Y0015996D01*
X0051172Y0016253D01*
X0052747Y0017828D01*
X0053002Y0018442D01*
X0055787Y0015657D01*
X0060213Y0015657D01*
X0063343Y0018787D01*
X0063343Y0023213D01*
X0060213Y0026343D01*
X0055787Y0026343D01*
X0054174Y0024731D01*
X0054408Y0025756D01*
X0055807Y0028661D01*
X0057818Y0031182D01*
X0060339Y0033193D01*
X0063244Y0034592D01*
X0066388Y0035309D01*
X0068000Y0035400D01*
X0085742Y0035400D01*
X0082421Y0033483D01*
X0079517Y0030579D01*
X0079517Y0030579D01*
X0079517Y0030579D01*
X0077463Y0027021D01*
X0076400Y0023054D01*
X0076400Y0019886D01*
X0076657Y0019266D01*
X0076657Y0018787D01*
X0076996Y0018448D01*
X0077253Y0017828D01*
X0078828Y0016253D01*
X0079448Y0015996D01*
X0079787Y0015657D01*
X0080266Y0015657D01*
X0080886Y0015400D01*
X0083114Y0015400D01*
X0083734Y0015657D01*
X0084213Y0015657D01*
X0084552Y0015996D01*
X0085172Y0016253D01*
X0086747Y0017828D01*
X0087002Y0018442D01*
X0089787Y0015657D01*
X0094213Y0015657D01*
X0097343Y0018787D01*
X0097343Y0023213D01*
X0095157Y0025400D01*
X0113843Y0025400D01*
X0111657Y0023213D01*
X0111657Y0018787D01*
X0114787Y0015657D01*
X0119213Y0015657D01*
X0122343Y0018787D01*
X0122343Y0023213D01*
X0120157Y0025400D01*
X0135405Y0025400D01*
X0133200Y0023195D01*
X0133200Y0018805D01*
X0136146Y0015859D01*
X0133400Y0013112D01*
X0133400Y0011400D01*
X0133400Y0009794D02*
X0016800Y0009794D01*
X0016591Y0008596D02*
X0133692Y0008596D01*
X0134890Y0007397D02*
X0015392Y0007397D01*
X0016606Y0013390D02*
X0133677Y0013390D01*
X0134876Y0014588D02*
X0015407Y0014588D01*
X0014209Y0015787D02*
X0045657Y0015787D01*
X0044095Y0016985D02*
X0014980Y0016985D01*
X0016179Y0018184D02*
X0043105Y0018184D01*
X0042609Y0019382D02*
X0016800Y0019382D01*
X0016800Y0020581D02*
X0042400Y0020581D01*
X0042400Y0021779D02*
X0016800Y0021779D01*
X0016800Y0022978D02*
X0042400Y0022978D01*
X0042467Y0024176D02*
X0015819Y0024176D01*
X0014621Y0025375D02*
X0042740Y0025375D01*
X0043014Y0026573D02*
X0014569Y0026573D01*
X0015767Y0027772D02*
X0043287Y0027772D01*
X0043561Y0028970D02*
X0016800Y0028970D01*
X0016800Y0030169D02*
X0044002Y0030169D01*
X0044579Y0031367D02*
X0016800Y0031367D01*
X0016800Y0032566D02*
X0045156Y0032566D01*
X0045733Y0033764D02*
X0016231Y0033764D01*
X0015033Y0034963D02*
X0046391Y0034963D01*
X0046187Y0034706D02*
X0046187Y0034706D01*
X0047347Y0036161D02*
X0014157Y0036161D01*
X0015355Y0037360D02*
X0048303Y0037360D01*
X0049259Y0038558D02*
X0016554Y0038558D01*
X0016800Y0039757D02*
X0050461Y0039757D01*
X0049784Y0039216D02*
X0049784Y0039216D01*
X0049784Y0039216D01*
X0051964Y0040955D02*
X0016800Y0040955D01*
X0016800Y0042154D02*
X0053467Y0042154D01*
X0054294Y0042813D02*
X0054294Y0042813D01*
X0055413Y0043352D02*
X0016643Y0043352D01*
X0015444Y0044551D02*
X0057902Y0044551D01*
X0059491Y0045316D02*
X0059491Y0045316D01*
X0061389Y0045749D02*
X0014246Y0045749D01*
X0014943Y0046948D02*
X0135057Y0046948D01*
X0133858Y0048146D02*
X0016142Y0048146D01*
X0016800Y0049345D02*
X0133200Y0049345D01*
X0133200Y0050543D02*
X0016800Y0050543D01*
X0016800Y0051742D02*
X0133200Y0051742D01*
X0133200Y0052940D02*
X0016800Y0052940D01*
X0015856Y0054139D02*
X0134144Y0054139D01*
X0135342Y0055337D02*
X0014658Y0055337D01*
X0014531Y0056536D02*
X0135469Y0056536D01*
X0134270Y0057734D02*
X0015730Y0057734D01*
X0016800Y0058933D02*
X0133200Y0058933D01*
X0133200Y0060132D02*
X0016800Y0060132D01*
X0016800Y0061330D02*
X0133200Y0061330D01*
X0133200Y0062529D02*
X0016800Y0062529D01*
X0016268Y0063727D02*
X0133732Y0063727D01*
X0134930Y0064926D02*
X0015070Y0064926D01*
X0014119Y0066124D02*
X0135881Y0066124D01*
X0134682Y0067323D02*
X0015318Y0067323D01*
X0016516Y0068521D02*
X0133484Y0068521D01*
X0133200Y0069720D02*
X0016800Y0069720D01*
X0016800Y0070918D02*
X0133200Y0070918D01*
X0133200Y0072117D02*
X0016800Y0072117D01*
X0016680Y0073315D02*
X0133320Y0073315D01*
X0134518Y0074514D02*
X0015482Y0074514D01*
X0014283Y0075712D02*
X0135717Y0075712D01*
X0135094Y0076911D02*
X0014906Y0076911D01*
X0016105Y0078109D02*
X0133895Y0078109D01*
X0133200Y0079308D02*
X0016800Y0079308D01*
X0016800Y0080506D02*
X0133200Y0080506D01*
X0133200Y0081705D02*
X0016800Y0081705D01*
X0016800Y0082903D02*
X0133200Y0082903D01*
X0134106Y0084102D02*
X0015894Y0084102D01*
X0014695Y0085300D02*
X0135305Y0085300D01*
X0141695Y0085300D02*
X0142900Y0085300D01*
X0142894Y0084102D02*
X0142900Y0084102D01*
X0142900Y0086499D02*
X0007100Y0086499D01*
X0007100Y0087697D02*
X0142900Y0087697D01*
X0135379Y0025375D02*
X0120182Y0025375D01*
X0121380Y0024176D02*
X0134181Y0024176D01*
X0133200Y0022978D02*
X0122343Y0022978D01*
X0122343Y0021779D02*
X0133200Y0021779D01*
X0133200Y0020581D02*
X0122343Y0020581D01*
X0122343Y0019382D02*
X0133200Y0019382D01*
X0133821Y0018184D02*
X0121740Y0018184D01*
X0120542Y0016985D02*
X0135020Y0016985D01*
X0136074Y0015787D02*
X0119343Y0015787D01*
X0114657Y0015787D02*
X0094343Y0015787D01*
X0095542Y0016985D02*
X0113458Y0016985D01*
X0112260Y0018184D02*
X0096740Y0018184D01*
X0097343Y0019382D02*
X0111657Y0019382D01*
X0111657Y0020581D02*
X0097343Y0020581D01*
X0097343Y0021779D02*
X0111657Y0021779D01*
X0111657Y0022978D02*
X0097343Y0022978D01*
X0096380Y0024176D02*
X0112620Y0024176D01*
X0113818Y0025375D02*
X0095182Y0025375D01*
X0087260Y0018184D02*
X0086895Y0018184D01*
X0085905Y0016985D02*
X0088458Y0016985D01*
X0089657Y0015787D02*
X0084343Y0015787D01*
X0079657Y0015787D02*
X0060343Y0015787D01*
X0061542Y0016985D02*
X0078095Y0016985D01*
X0077105Y0018184D02*
X0062740Y0018184D01*
X0063343Y0019382D02*
X0076609Y0019382D01*
X0076400Y0020581D02*
X0063343Y0020581D01*
X0063343Y0021779D02*
X0076400Y0021779D01*
X0076400Y0022978D02*
X0063343Y0022978D01*
X0062380Y0024176D02*
X0076701Y0024176D01*
X0077022Y0025375D02*
X0061182Y0025375D01*
X0056054Y0028970D02*
X0078588Y0028970D01*
X0077896Y0027772D02*
X0055379Y0027772D01*
X0054802Y0026573D02*
X0077343Y0026573D01*
X0077463Y0027021D02*
X0077463Y0027021D01*
X0079280Y0030169D02*
X0057009Y0030169D01*
X0058050Y0031367D02*
X0080306Y0031367D01*
X0081504Y0032566D02*
X0059552Y0032566D01*
X0061525Y0033764D02*
X0082908Y0033764D01*
X0082421Y0033483D02*
X0082421Y0033483D01*
X0084984Y0034963D02*
X0064869Y0034963D01*
X0054818Y0025375D02*
X0054321Y0025375D01*
X0053260Y0018184D02*
X0052895Y0018184D01*
X0051905Y0016985D02*
X0054458Y0016985D01*
X0055657Y0015787D02*
X0050343Y0015787D01*
X0007106Y0084102D02*
X0007100Y0084102D01*
X0007100Y0085300D02*
X0008305Y0085300D01*
D13*
X0048000Y0021000D03*
X0058000Y0021000D03*
X0068000Y0021000D03*
X0082000Y0021000D03*
X0092000Y0021000D03*
X0102000Y0021000D03*
X0117000Y0021000D03*
X0117000Y0011000D03*
D14*
X0115000Y0060000D03*
X0035000Y0060000D03*
D15*
X0068000Y0041000D02*
X0138500Y0041000D01*
X0138500Y0031000D02*
X0092000Y0031000D01*
X0091758Y0030997D01*
X0091517Y0030988D01*
X0091276Y0030974D01*
X0091035Y0030953D01*
X0090795Y0030927D01*
X0090555Y0030895D01*
X0090316Y0030857D01*
X0090079Y0030814D01*
X0089842Y0030764D01*
X0089607Y0030709D01*
X0089373Y0030649D01*
X0089141Y0030582D01*
X0088910Y0030511D01*
X0088681Y0030433D01*
X0088454Y0030350D01*
X0088229Y0030262D01*
X0088006Y0030168D01*
X0087786Y0030069D01*
X0087568Y0029964D01*
X0087353Y0029855D01*
X0087140Y0029740D01*
X0086930Y0029620D01*
X0086724Y0029495D01*
X0086520Y0029365D01*
X0086319Y0029230D01*
X0086122Y0029090D01*
X0085928Y0028946D01*
X0085738Y0028797D01*
X0085552Y0028643D01*
X0085369Y0028485D01*
X0085190Y0028323D01*
X0085015Y0028156D01*
X0084844Y0027985D01*
X0084677Y0027810D01*
X0084515Y0027631D01*
X0084357Y0027448D01*
X0084203Y0027262D01*
X0084054Y0027072D01*
X0083910Y0026878D01*
X0083770Y0026681D01*
X0083635Y0026480D01*
X0083505Y0026276D01*
X0083380Y0026070D01*
X0083260Y0025860D01*
X0083145Y0025647D01*
X0083036Y0025432D01*
X0082931Y0025214D01*
X0082832Y0024994D01*
X0082738Y0024771D01*
X0082650Y0024546D01*
X0082567Y0024319D01*
X0082489Y0024090D01*
X0082418Y0023859D01*
X0082351Y0023627D01*
X0082291Y0023393D01*
X0082236Y0023158D01*
X0082186Y0022921D01*
X0082143Y0022684D01*
X0082105Y0022445D01*
X0082073Y0022205D01*
X0082047Y0021965D01*
X0082026Y0021724D01*
X0082012Y0021483D01*
X0082003Y0021242D01*
X0082000Y0021000D01*
X0068000Y0041000D02*
X0067517Y0040994D01*
X0067034Y0040977D01*
X0066551Y0040947D01*
X0066070Y0040907D01*
X0065589Y0040854D01*
X0065110Y0040790D01*
X0064633Y0040715D01*
X0064157Y0040627D01*
X0063684Y0040529D01*
X0063214Y0040419D01*
X0062746Y0040298D01*
X0062281Y0040165D01*
X0061820Y0040021D01*
X0061362Y0039866D01*
X0060908Y0039700D01*
X0060458Y0039523D01*
X0060013Y0039336D01*
X0059572Y0039137D01*
X0059136Y0038929D01*
X0058706Y0038709D01*
X0058280Y0038479D01*
X0057861Y0038239D01*
X0057447Y0037989D01*
X0057040Y0037729D01*
X0056639Y0037460D01*
X0056244Y0037180D01*
X0055857Y0036892D01*
X0055476Y0036593D01*
X0055103Y0036286D01*
X0054738Y0035970D01*
X0054380Y0035645D01*
X0054030Y0035312D01*
X0053688Y0034970D01*
X0053355Y0034620D01*
X0053030Y0034262D01*
X0052714Y0033897D01*
X0052407Y0033524D01*
X0052108Y0033143D01*
X0051820Y0032756D01*
X0051540Y0032361D01*
X0051271Y0031960D01*
X0051011Y0031553D01*
X0050761Y0031139D01*
X0050521Y0030720D01*
X0050291Y0030294D01*
X0050071Y0029864D01*
X0049863Y0029428D01*
X0049664Y0028987D01*
X0049477Y0028542D01*
X0049300Y0028092D01*
X0049134Y0027638D01*
X0048979Y0027180D01*
X0048835Y0026719D01*
X0048702Y0026254D01*
X0048581Y0025786D01*
X0048471Y0025316D01*
X0048373Y0024843D01*
X0048285Y0024367D01*
X0048210Y0023890D01*
X0048146Y0023411D01*
X0048093Y0022930D01*
X0048053Y0022449D01*
X0048023Y0021966D01*
X0048006Y0021483D01*
X0048000Y0021000D01*
M02*
