G75*
%MOIN*%
%OFA0B0*%
%FSLAX25Y25*%
%IPPOS*%
%LPD*%
%AMOC8*
5,1,8,0,0,1.08239X$1,22.5*
%
%ADD10OC8,0.07000*%
%ADD11OC8,0.07087*%
%ADD12C,0.16992*%
%ADD13C,0.01200*%
D10*
X0011500Y0011000D03*
X0011500Y0021000D03*
X0011500Y0031000D03*
X0011500Y0041000D03*
X0011500Y0051000D03*
X0011500Y0061000D03*
X0011500Y0071000D03*
X0011500Y0081000D03*
X0138500Y0081000D03*
X0138500Y0071000D03*
X0138500Y0061000D03*
X0138500Y0051000D03*
X0138500Y0041000D03*
X0138500Y0031000D03*
X0138500Y0021000D03*
X0138500Y0011000D03*
D11*
X0117000Y0011000D03*
X0117000Y0021000D03*
X0102000Y0021000D03*
X0092000Y0021000D03*
X0082000Y0021000D03*
X0068000Y0021000D03*
X0058000Y0021000D03*
X0048000Y0021000D03*
D12*
X0035000Y0060000D03*
X0115000Y0060000D03*
D13*
X0121605Y0068521D02*
X0132918Y0068521D01*
X0132800Y0068639D02*
X0135439Y0066000D01*
X0132800Y0063361D01*
X0132800Y0058639D01*
X0135439Y0056000D01*
X0132800Y0053361D01*
X0132800Y0048639D01*
X0135439Y0046000D01*
X0132800Y0043361D01*
X0132800Y0038639D01*
X0135439Y0036000D01*
X0132800Y0033361D01*
X0132800Y0028639D01*
X0135863Y0025576D01*
X0133400Y0023112D01*
X0133400Y0021400D01*
X0138100Y0021400D01*
X0138100Y0020600D01*
X0133400Y0020600D01*
X0133400Y0018888D01*
X0135863Y0016424D01*
X0132800Y0013361D01*
X0132800Y0008639D01*
X0134239Y0007200D01*
X0121322Y0007200D01*
X0122743Y0008621D01*
X0122743Y0013379D01*
X0119379Y0016743D01*
X0114621Y0016743D01*
X0111257Y0013379D01*
X0111257Y0008621D01*
X0112678Y0007200D01*
X0015761Y0007200D01*
X0017200Y0008639D01*
X0017200Y0013361D01*
X0014561Y0016000D01*
X0017200Y0018639D01*
X0017200Y0023361D01*
X0014561Y0026000D01*
X0017200Y0028639D01*
X0017200Y0033361D01*
X0014561Y0036000D01*
X0017200Y0038639D01*
X0017200Y0043361D01*
X0014561Y0046000D01*
X0017200Y0048639D01*
X0017200Y0053361D01*
X0014561Y0056000D01*
X0017200Y0058639D01*
X0017200Y0063361D01*
X0014561Y0066000D01*
X0017200Y0068639D01*
X0017200Y0073361D01*
X0014561Y0076000D01*
X0017200Y0078639D01*
X0017200Y0083361D01*
X0013861Y0086700D01*
X0009139Y0086700D01*
X0007200Y0084761D01*
X0007200Y0087800D01*
X0142800Y0087800D01*
X0142800Y0084761D01*
X0140861Y0086700D01*
X0136139Y0086700D01*
X0132800Y0083361D01*
X0132800Y0078639D01*
X0135439Y0076000D01*
X0132800Y0073361D01*
X0132800Y0068639D01*
X0132800Y0069720D02*
X0119557Y0069720D01*
X0119129Y0069967D02*
X0116408Y0070696D01*
X0113592Y0070696D01*
X0110871Y0069967D01*
X0108432Y0068559D01*
X0106441Y0066568D01*
X0105033Y0064129D01*
X0104304Y0061408D01*
X0104304Y0058592D01*
X0105033Y0055871D01*
X0106441Y0053432D01*
X0108432Y0051441D01*
X0110871Y0050033D01*
X0113592Y0049304D01*
X0116408Y0049304D01*
X0119129Y0050033D01*
X0121568Y0051441D01*
X0123559Y0053432D01*
X0124967Y0055871D01*
X0125696Y0058592D01*
X0125696Y0061408D01*
X0124967Y0064129D01*
X0123559Y0066568D01*
X0121568Y0068559D01*
X0119129Y0069967D01*
X0122804Y0067323D02*
X0134116Y0067323D01*
X0135315Y0066124D02*
X0123815Y0066124D01*
X0124507Y0064926D02*
X0134365Y0064926D01*
X0133166Y0063727D02*
X0125075Y0063727D01*
X0125396Y0062529D02*
X0132800Y0062529D01*
X0132800Y0061330D02*
X0125696Y0061330D01*
X0125696Y0060132D02*
X0132800Y0060132D01*
X0132800Y0058933D02*
X0125696Y0058933D01*
X0125466Y0057734D02*
X0133704Y0057734D01*
X0134903Y0056536D02*
X0125145Y0056536D01*
X0124659Y0055337D02*
X0134776Y0055337D01*
X0133578Y0054139D02*
X0123967Y0054139D01*
X0123067Y0052940D02*
X0132800Y0052940D01*
X0132800Y0051742D02*
X0121868Y0051742D01*
X0120013Y0050543D02*
X0132800Y0050543D01*
X0132800Y0049345D02*
X0116561Y0049345D01*
X0113439Y0049345D02*
X0036561Y0049345D01*
X0036408Y0049304D02*
X0039129Y0050033D01*
X0041568Y0051441D01*
X0043559Y0053432D01*
X0044967Y0055871D01*
X0045696Y0058592D01*
X0045696Y0061408D01*
X0044967Y0064129D01*
X0043559Y0066568D01*
X0041568Y0068559D01*
X0039129Y0069967D01*
X0036408Y0070696D01*
X0033592Y0070696D01*
X0030871Y0069967D01*
X0028432Y0068559D01*
X0026441Y0066568D01*
X0025033Y0064129D01*
X0024304Y0061408D01*
X0024304Y0058592D01*
X0025033Y0055871D01*
X0026441Y0053432D01*
X0028432Y0051441D01*
X0030871Y0050033D01*
X0033592Y0049304D01*
X0036408Y0049304D01*
X0033439Y0049345D02*
X0017200Y0049345D01*
X0017200Y0050543D02*
X0029987Y0050543D01*
X0028132Y0051742D02*
X0017200Y0051742D01*
X0017200Y0052940D02*
X0026933Y0052940D01*
X0026033Y0054139D02*
X0016422Y0054139D01*
X0015224Y0055337D02*
X0025341Y0055337D01*
X0024855Y0056536D02*
X0015097Y0056536D01*
X0016295Y0057734D02*
X0024534Y0057734D01*
X0024304Y0058933D02*
X0017200Y0058933D01*
X0017200Y0060132D02*
X0024304Y0060132D01*
X0024304Y0061330D02*
X0017200Y0061330D01*
X0017200Y0062529D02*
X0024604Y0062529D01*
X0024925Y0063727D02*
X0016834Y0063727D01*
X0015635Y0064926D02*
X0025493Y0064926D01*
X0026185Y0066124D02*
X0014685Y0066124D01*
X0015884Y0067323D02*
X0027196Y0067323D01*
X0028395Y0068521D02*
X0017082Y0068521D01*
X0017200Y0069720D02*
X0030443Y0069720D01*
X0039557Y0069720D02*
X0110443Y0069720D01*
X0108395Y0068521D02*
X0041605Y0068521D01*
X0042804Y0067323D02*
X0107196Y0067323D01*
X0106185Y0066124D02*
X0043815Y0066124D01*
X0044507Y0064926D02*
X0105493Y0064926D01*
X0104925Y0063727D02*
X0045075Y0063727D01*
X0045396Y0062529D02*
X0104604Y0062529D01*
X0104304Y0061330D02*
X0045696Y0061330D01*
X0045696Y0060132D02*
X0104304Y0060132D01*
X0104304Y0058933D02*
X0045696Y0058933D01*
X0045466Y0057734D02*
X0104534Y0057734D01*
X0104855Y0056536D02*
X0045145Y0056536D01*
X0044659Y0055337D02*
X0105341Y0055337D01*
X0106033Y0054139D02*
X0043967Y0054139D01*
X0043067Y0052940D02*
X0106933Y0052940D01*
X0108132Y0051742D02*
X0041868Y0051742D01*
X0040013Y0050543D02*
X0109987Y0050543D01*
X0104379Y0026743D02*
X0099621Y0026743D01*
X0096257Y0023379D01*
X0096257Y0018621D01*
X0099621Y0015257D01*
X0104379Y0015257D01*
X0107743Y0018621D01*
X0107743Y0023379D01*
X0104379Y0026743D01*
X0104549Y0026573D02*
X0134866Y0026573D01*
X0135662Y0025375D02*
X0105748Y0025375D01*
X0106946Y0024176D02*
X0134464Y0024176D01*
X0133400Y0022978D02*
X0107743Y0022978D01*
X0107743Y0021779D02*
X0133400Y0021779D01*
X0133400Y0020581D02*
X0107743Y0020581D01*
X0107743Y0019382D02*
X0133400Y0019382D01*
X0134104Y0018184D02*
X0107306Y0018184D01*
X0106107Y0016985D02*
X0135302Y0016985D01*
X0135226Y0015787D02*
X0120336Y0015787D01*
X0121534Y0014588D02*
X0134027Y0014588D01*
X0132829Y0013390D02*
X0122733Y0013390D01*
X0122743Y0012191D02*
X0132800Y0012191D01*
X0132800Y0010993D02*
X0122743Y0010993D01*
X0122743Y0009794D02*
X0132800Y0009794D01*
X0132843Y0008596D02*
X0122718Y0008596D01*
X0121519Y0007397D02*
X0134042Y0007397D01*
X0133667Y0027772D02*
X0016333Y0027772D01*
X0017200Y0028970D02*
X0132800Y0028970D01*
X0132800Y0030169D02*
X0017200Y0030169D01*
X0017200Y0031367D02*
X0132800Y0031367D01*
X0132800Y0032566D02*
X0017200Y0032566D01*
X0016797Y0033764D02*
X0133203Y0033764D01*
X0134402Y0034963D02*
X0015598Y0034963D01*
X0014722Y0036161D02*
X0135278Y0036161D01*
X0134079Y0037360D02*
X0015921Y0037360D01*
X0017119Y0038558D02*
X0132881Y0038558D01*
X0132800Y0039757D02*
X0017200Y0039757D01*
X0017200Y0040955D02*
X0132800Y0040955D01*
X0132800Y0042154D02*
X0017200Y0042154D01*
X0017200Y0043352D02*
X0132800Y0043352D01*
X0133990Y0044551D02*
X0016010Y0044551D01*
X0014812Y0045749D02*
X0135188Y0045749D01*
X0134491Y0046948D02*
X0015509Y0046948D01*
X0016707Y0048146D02*
X0133293Y0048146D01*
X0132800Y0070918D02*
X0017200Y0070918D01*
X0017200Y0072117D02*
X0132800Y0072117D01*
X0132800Y0073315D02*
X0017200Y0073315D01*
X0016047Y0074514D02*
X0133953Y0074514D01*
X0135151Y0075712D02*
X0014849Y0075712D01*
X0015472Y0076911D02*
X0134528Y0076911D01*
X0133330Y0078109D02*
X0016670Y0078109D01*
X0017200Y0079308D02*
X0132800Y0079308D01*
X0132800Y0080506D02*
X0017200Y0080506D01*
X0017200Y0081705D02*
X0132800Y0081705D01*
X0132800Y0082903D02*
X0017200Y0082903D01*
X0016459Y0084102D02*
X0133541Y0084102D01*
X0134739Y0085300D02*
X0015261Y0085300D01*
X0014062Y0086499D02*
X0135938Y0086499D01*
X0141062Y0086499D02*
X0142800Y0086499D01*
X0142800Y0087697D02*
X0007200Y0087697D01*
X0007200Y0086499D02*
X0008938Y0086499D01*
X0007739Y0085300D02*
X0007200Y0085300D01*
X0015134Y0026573D02*
X0045451Y0026573D01*
X0045621Y0026743D02*
X0042257Y0023379D01*
X0042257Y0018621D01*
X0045621Y0015257D01*
X0050379Y0015257D01*
X0053743Y0018621D01*
X0053743Y0023379D01*
X0050379Y0026743D01*
X0045621Y0026743D01*
X0044252Y0025375D02*
X0015186Y0025375D01*
X0016385Y0024176D02*
X0043054Y0024176D01*
X0042257Y0022978D02*
X0017200Y0022978D01*
X0017200Y0021779D02*
X0042257Y0021779D01*
X0042257Y0020581D02*
X0017200Y0020581D01*
X0017200Y0019382D02*
X0042257Y0019382D01*
X0042694Y0018184D02*
X0016745Y0018184D01*
X0015546Y0016985D02*
X0043893Y0016985D01*
X0045091Y0015787D02*
X0014774Y0015787D01*
X0015973Y0014588D02*
X0112466Y0014588D01*
X0113664Y0015787D02*
X0104909Y0015787D01*
X0099091Y0015787D02*
X0084909Y0015787D01*
X0084379Y0015257D02*
X0087743Y0018621D01*
X0087743Y0023379D01*
X0084379Y0026743D01*
X0079621Y0026743D01*
X0076257Y0023379D01*
X0076257Y0018621D01*
X0079621Y0015257D01*
X0084379Y0015257D01*
X0086107Y0016985D02*
X0097893Y0016985D01*
X0096694Y0018184D02*
X0087306Y0018184D01*
X0087743Y0019382D02*
X0096257Y0019382D01*
X0096257Y0020581D02*
X0087743Y0020581D01*
X0087743Y0021779D02*
X0096257Y0021779D01*
X0096257Y0022978D02*
X0087743Y0022978D01*
X0086946Y0024176D02*
X0097054Y0024176D01*
X0098252Y0025375D02*
X0085748Y0025375D01*
X0084549Y0026573D02*
X0099451Y0026573D01*
X0111267Y0013390D02*
X0017171Y0013390D01*
X0017200Y0012191D02*
X0111257Y0012191D01*
X0111257Y0010993D02*
X0017200Y0010993D01*
X0017200Y0009794D02*
X0111257Y0009794D01*
X0111282Y0008596D02*
X0017157Y0008596D01*
X0015958Y0007397D02*
X0112481Y0007397D01*
X0079451Y0026573D02*
X0070549Y0026573D01*
X0070379Y0026743D02*
X0065621Y0026743D01*
X0062257Y0023379D01*
X0062257Y0018621D01*
X0065621Y0015257D01*
X0070379Y0015257D01*
X0073743Y0018621D01*
X0073743Y0023379D01*
X0070379Y0026743D01*
X0071748Y0025375D02*
X0078252Y0025375D01*
X0077054Y0024176D02*
X0072946Y0024176D01*
X0073743Y0022978D02*
X0076257Y0022978D01*
X0076257Y0021779D02*
X0073743Y0021779D01*
X0073743Y0020581D02*
X0076257Y0020581D01*
X0076257Y0019382D02*
X0073743Y0019382D01*
X0073306Y0018184D02*
X0076694Y0018184D01*
X0077893Y0016985D02*
X0072107Y0016985D01*
X0070909Y0015787D02*
X0079091Y0015787D01*
X0065091Y0015787D02*
X0050909Y0015787D01*
X0052107Y0016985D02*
X0063893Y0016985D01*
X0062694Y0018184D02*
X0053306Y0018184D01*
X0053743Y0019382D02*
X0062257Y0019382D01*
X0062257Y0020581D02*
X0053743Y0020581D01*
X0053743Y0021779D02*
X0062257Y0021779D01*
X0062257Y0022978D02*
X0053743Y0022978D01*
X0052946Y0024176D02*
X0063054Y0024176D01*
X0064252Y0025375D02*
X0051748Y0025375D01*
X0050549Y0026573D02*
X0065451Y0026573D01*
X0142261Y0085300D02*
X0142800Y0085300D01*
M02*
